<?xml version="1.0" encoding="UTF-8"?>
<svg version="1.1" xmlns="http://www.w3.org/2000/svg" width="50" height="50">
<path d="M0 0 C-0.61538462 6.52307692 -0.61538462 6.52307692 -2.5625 8.9375 C-3.036875 9.288125 -3.51125 9.63875 -4 10 C-2.453125 9.87625 -2.453125 9.87625 -0.875 9.75 C3.62811903 10.04052381 5.59768808 11.09558739 9 14 C9 14.99 9 15.98 9 17 C8.34 17 7.68 17 7 17 C5.03878726 22.67468702 5.03878726 22.67468702 6.1875 28.375 C7.89907365 31.19958851 7.89907365 31.19958851 11 33 C9.6854316 38.38973043 7.4725366 42.65784287 3 46 C-0.8602032 47.02512387 -4.52621453 46.98049873 -8.5 46.875 C-9.51964844 46.90207031 -10.53929688 46.92914063 -11.58984375 46.95703125 C-18.82820893 46.89114236 -18.82820893 46.89114236 -21.98876953 44.48754883 C-23.52425048 42.72544149 -24.78934011 40.99637003 -26 39 C-26.61875 37.989375 -27.2375 36.97875 -27.875 35.9375 C-30.00474212 30.29240041 -29.76209412 23.89211654 -29 18 C-27.44464405 14.57451369 -25.11117514 12.88127684 -22.1875 10.5625 C-18.17232892 9.53002744 -13.70503557 10.14748221 -10 12 C-10.12375 10.6696875 -10.12375 10.6696875 -10.25 9.3125 C-9.94530814 5.27533282 -8.77959995 3.86135289 -6 1 C-4 0 -4 0 0 0 Z " fill="#000000" transform="translate(34,1)"/>
</svg>
