<svg xmlns="http://www.w3.org/2000/svg" width="800" height="800" viewBox="0 0 800 800" version="1.1"><path d="M 654.286 590.393 C 643.426 593.935, 632.798 603.723, 628.919 613.753 C 625.817 621.778, 625.823 634.237, 628.933 642.285 C 632.051 650.348, 640.300 659.038, 648.820 663.232 C 654.978 666.264, 656.183 666.500, 665.479 666.500 C 674.643 666.500, 676.056 666.233, 682 663.380 C 693.796 657.719, 701.778 647.223, 704.202 634.187 C 707.266 617.715, 697.906 600.198, 682.017 592.667 C 676.638 590.117, 674.085 589.545, 667.017 589.306 C 661.736 589.128, 656.899 589.541, 654.286 590.393" stroke="none" fill="#00ffff" fill-rule="evenodd"/><path d="M 520.500 153.696 C 504.211 154.557, 482.976 159.156, 467.500 165.173 C 444.521 174.108, 426.121 185.936, 411.250 201.333 L 402 210.910 402 186.455 L 402 162 314.132 162 L 226.264 162 226.733 173.250 C 228.609 218.294, 197.084 256.683, 152.396 263.771 L 142 265.421 142.001 375.460 C 142.001 435.982, 142.300 518.239, 142.665 558.254 L 143.329 631.007 272.914 630.754 L 402.500 630.500 402.794 624.396 L 403.088 618.292 417.294 623.216 C 425.107 625.924, 436.122 629.236, 441.772 630.577 C 484.124 640.626, 533.774 641.608, 571 633.133 L 578.500 631.426 579.258 621.963 C 582.476 581.761, 609.191 551.304, 648.159 543.408 C 654.333 542.157, 659.264 541.882, 667.942 542.305 C 674.299 542.615, 680.400 543.146, 681.500 543.485 C 683.246 544.023, 683.726 543.300, 685.277 537.801 C 690.422 519.557, 691.826 490.970, 688.532 471.500 C 683.542 442.005, 667.896 413.028, 646.110 392.937 C 625.384 373.822, 604.941 362.297, 562 345.514 C 541.476 337.492, 518.605 326.079, 511.500 320.313 C 504.673 314.773, 499.545 307.735, 497.906 301.657 C 496.619 296.881, 497.313 288.888, 499.462 283.744 C 502.701 275.994, 514.992 269.271, 530.306 266.875 C 541.289 265.156, 559.720 266.312, 570 269.364 C 587.491 274.556, 609.146 284.894, 622.469 294.411 C 625.203 296.364, 627.748 297.632, 628.125 297.231 C 628.502 296.829, 641.220 274.450, 656.387 247.500 L 683.963 198.500 681.732 196.784 C 677.470 193.507, 652.333 179.955, 643.941 176.410 C 623.470 167.764, 598.746 160.359, 579.439 157.091 C 567.912 155.141, 538.713 152.815, 530.500 153.194 C 528.300 153.295, 523.800 153.521, 520.500 153.696 M 235 303 L 235 350 312.020 350 L 389.041 350 387.143 346.250 C 384.209 340.451, 380.252 326.505, 378.413 315.485 C 375.601 298.628, 376.212 269.771, 379.636 257.750 C 380.108 256.095, 376.202 256, 307.567 256 L 235 256 235 303 M 401 405.448 L 401 441 318 441 L 235 441 235 489.007 L 235 537.014 302.592 536.757 L 370.184 536.500 385.342 509.274 C 393.679 494.299, 400.789 482.037, 401.142 482.024 C 401.495 482.011, 405.740 484.483, 410.574 487.519 C 429.274 499.259, 455.685 511.431, 475.460 517.423 C 494.487 523.189, 502.024 524.421, 518 524.375 C 540.052 524.312, 551.670 520.726, 559.819 511.468 C 565.399 505.129, 567.361 498.795, 566.791 488.956 C 566.406 482.304, 565.837 480.321, 562.920 475.466 C 555.082 462.420, 537.110 451.586, 491 432.109 C 449.225 414.464, 424.672 398.197, 405.853 375.698 L 401 369.896 401 405.448" stroke="none" fill="#044fa3" fill-rule="evenodd"/></svg>