<svg version="1.1" id="Layer_1" xmlns="http://www.w3.org/2000/svg" xmlns:xlink="http://www.w3.org/1999/xlink" x="0px" y="0px"
	 width="100%" viewBox="0 0 512 512" enable-background="new 0 0 512 512" xml:space="preserve">
<path fill="#000000" opacity="1.000000" stroke="none" 
	d="
M289.000000,513.000000 
	C192.690048,513.000000 96.880096,513.000000 1.035069,513.000000 
	C1.035069,342.398346 1.035069,171.796707 1.035069,1.097524 
	C171.559967,1.097524 342.120026,1.097524 512.840027,1.097524 
	C512.840027,171.666550 512.840027,342.333252 512.840027,513.000000 
	C438.463348,513.000000 363.981659,513.000000 289.000000,513.000000 
M103.292542,296.261017 
	C105.183830,301.997009 107.835297,307.367340 111.398003,312.234894 
	C124.482491,330.111633 142.165878,338.361420 164.283768,338.116547 
	C191.440460,337.815887 218.603271,338.109192 245.762375,337.956360 
	C251.847702,337.922089 256.403625,339.726501 260.483978,344.561798 
	C273.161163,359.584686 286.265930,374.247650 299.253235,389.007599 
	C304.026306,394.432129 308.700867,395.793152 314.301025,393.638672 
	C320.075500,391.417114 322.660828,387.407776 322.694763,380.362122 
	C322.745361,369.864960 322.643372,359.366577 322.755890,348.870331 
	C322.838043,341.208252 325.660217,338.440704 333.361389,338.080750 
	C339.015259,337.816498 344.785736,338.229767 350.306793,337.239899 
	C383.178345,331.346191 401.230560,302.343994 400.840149,277.044220 
	C400.385132,247.558487 400.742950,218.060440 400.698914,188.567825 
	C400.693939,185.248840 400.696777,181.874619 400.141357,178.620682 
	C396.724823,158.604523 385.960846,143.805481 368.204681,133.967361 
	C362.948456,131.055054 361.521149,126.702812 363.922577,122.366196 
	C366.118439,118.400810 370.666748,117.412376 375.744720,119.898224 
	C381.922638,122.922546 387.510254,126.839638 392.527771,131.529053 
	C409.316040,147.219589 416.772430,166.910004 417.297455,189.559982 
	C417.373291,192.832382 416.704346,196.246689 419.292053,199.060913 
	C422.109894,202.125397 424.712616,205.388229 427.542877,208.440582 
	C429.653748,210.717087 432.054504,212.468491 435.466217,210.951767 
	C438.620972,209.549271 439.800568,207.062531 439.773621,203.748550 
	C439.731628,198.583649 439.784821,193.418045 439.787537,188.252731 
	C439.795563,172.913803 440.715210,171.972565 456.062927,171.631332 
	C476.068451,171.186554 493.915527,154.310196 494.676178,134.204147 
	C495.551636,111.064400 495.606567,87.881653 494.709625,64.743874 
	C493.899658,43.849342 476.307922,27.424829 455.263611,27.355598 
	C412.774658,27.215824 370.284607,27.190653 327.795715,27.329086 
	C304.804718,27.403994 287.469086,45.037743 287.367645,68.016876 
	C287.313965,80.180275 287.537018,92.347961 287.273346,104.505867 
	C287.168091,109.359497 288.955231,110.960007 293.672546,110.905418 
	C308.333374,110.735794 322.997742,110.874664 337.660736,110.886063 
	C340.167175,110.888016 342.692230,110.874344 345.071350,111.748451 
	C348.338287,112.948746 350.272736,115.225784 350.336487,118.857018 
	C350.402832,122.634926 348.671722,125.163910 345.166656,126.562042 
	C342.753632,127.524567 340.241608,127.281532 337.757996,127.282837 
	C294.102142,127.305840 250.446182,127.353828 206.790665,127.239067 
	C202.656326,127.228195 200.115509,128.489685 197.921341,132.102295 
	C190.994553,143.507004 180.744904,150.692001 167.663223,153.091232 
	C162.505310,154.037216 160.740784,156.182419 161.353195,161.031372 
	C161.498169,162.179108 161.373978,163.361389 161.366516,164.527740 
	C161.304993,174.137466 156.852051,181.210739 148.923859,184.295593 
	C140.703049,187.494308 132.932800,185.582321 126.351067,178.442932 
	C121.497192,173.177795 116.921677,167.656906 112.129295,162.333572 
	C110.987572,161.065369 110.171585,159.095993 107.387230,159.434235 
	C103.126060,167.244095 100.458122,175.772964 100.409805,184.872009 
	C100.246124,215.696838 100.376511,246.523132 100.284607,277.348511 
	C100.266029,283.580719 101.232452,289.589874 103.292542,296.261017 
M130.754395,347.917328 
	C107.346634,337.376831 92.508186,319.626465 86.237747,294.765564 
	C83.478874,283.827209 84.078911,272.620361 83.957001,261.476013 
	C83.789391,246.154053 85.884308,247.117523 69.713715,247.303070 
	C40.349743,247.639984 16.692019,271.127014 16.424248,300.489471 
	C16.175085,327.811493 16.318766,355.137909 16.421064,382.461884 
	C16.450695,390.376495 18.183855,398.045868 21.802660,405.101685 
	C32.501076,425.961060 49.721954,436.021729 73.127777,435.805634 
	C84.882393,435.697083 87.037254,438.034332 87.063095,449.884186 
	C87.082710,458.879852 86.928391,467.886078 87.315498,476.867584 
	C87.621902,483.976440 94.650681,488.426666 101.249680,486.172485 
	C104.046356,485.217224 105.979782,483.151611 107.858284,481.003693 
	C119.484085,467.710602 131.154984,454.456726 142.730377,441.119965 
	C145.490341,437.940002 148.586716,435.763123 152.960342,435.774200 
	C163.623398,435.801208 174.286667,435.755798 184.949615,435.797089 
	C188.620483,435.811279 191.723663,436.921570 193.894089,440.250305 
	C197.103073,445.171844 206.016922,445.238831 209.305328,440.364197 
	C211.500641,437.109985 214.552765,435.873199 218.232300,435.807465 
	C223.229279,435.718140 228.229050,435.792236 233.226425,435.716492 
	C254.668900,435.391388 274.111603,421.995483 282.335754,402.189819 
	C283.949127,398.304413 283.596588,395.423065 280.746552,392.244385 
	C270.626770,380.957367 260.665771,369.525482 250.793961,358.020355 
	C248.385239,355.213135 245.696136,354.264954 242.085037,354.279022 
	C215.927353,354.380981 189.769028,354.309570 163.610916,354.322052 
	C152.500595,354.327362 141.748718,352.511597 130.754395,347.917328 
M145.778305,144.128113 
	C147.881836,137.702316 153.305817,138.011597 158.500732,137.855377 
	C176.143860,137.324829 188.563583,124.922012 188.739655,107.361992 
	C188.901611,91.208977 188.905151,75.052559 188.787872,58.899029 
	C188.649445,39.832710 176.141220,27.351755 157.105240,27.297216 
	C124.796417,27.204649 92.487114,27.192190 60.178204,27.251663 
	C40.141895,27.288544 27.914494,39.672726 27.899874,59.794315 
	C27.888985,74.782776 27.950668,89.771492 28.047640,104.759659 
	C28.071245,108.408043 27.976580,112.074837 28.981850,115.664314 
	C32.622101,128.662399 43.570400,137.551483 57.125244,137.792755 
	C72.775337,138.071289 88.434135,137.985855 104.087791,137.871689 
	C109.626778,137.831314 113.925568,139.484528 117.549538,143.938904 
	C123.535545,151.296570 129.956650,158.305664 136.327301,165.341324 
	C137.997131,167.185455 139.480972,170.332977 142.719894,168.911285 
	C145.800171,167.559250 145.605850,164.358536 145.616272,161.498215 
	C145.636292,156.002670 145.659897,150.507111 145.778305,144.128113 
M386.622223,428.149292 
	C392.428284,421.500061 398.419403,415.000885 403.976074,408.149414 
	C407.751801,403.493927 412.070740,401.436279 418.174438,401.562134 
	C434.160614,401.891693 450.158569,401.752380 466.150940,401.651550 
	C482.945282,401.545685 497.245178,387.762238 497.541870,370.947662 
	C497.856262,353.127747 497.835815,335.294312 497.547638,317.473511 
	C497.264923,299.990662 483.164368,286.457184 465.585510,286.338837 
	C453.258118,286.255859 440.929565,286.267487 428.601929,286.323517 
	C414.263794,286.388641 417.525818,284.930450 414.268219,297.717224 
	C414.022217,298.682739 413.719696,299.637207 413.386200,300.576538 
	C401.895081,332.944214 378.676605,350.431641 344.862122,354.075531 
	C340.133331,354.585114 339.126495,356.437012 339.131165,360.668518 
	C339.140900,369.482117 339.749146,378.333252 338.368073,387.106354 
	C337.870056,390.269775 339.107849,392.543762 341.494354,394.484253 
	C348.148529,399.894623 355.770081,401.931641 364.267792,401.749298 
	C372.057007,401.582153 375.118805,404.813080 375.259735,412.608490 
	C375.332001,416.605621 375.116577,420.615417 375.358551,424.599640 
	C375.557709,427.878326 373.700409,432.278687 378.034088,433.891907 
	C382.341125,435.495148 383.704529,430.874939 386.622223,428.149292 
z"/>
<path fill="#000000" opacity="1.000000" stroke="none" 
	d="
M289.230896,277.908020 
	C272.664276,266.297729 264.781860,250.529785 266.975006,230.901352 
	C269.141144,211.514603 279.881012,197.618835 298.259705,190.385376 
	C317.567047,182.786453 339.007477,188.153839 352.914551,203.634888 
	C366.411285,218.659149 369.317596,240.552673 359.715057,259.019073 
	C357.373444,263.522156 357.309875,266.594910 361.307159,269.697266 
	C362.337555,270.497009 363.229340,271.581055 363.915009,272.699860 
	C366.172791,276.383820 366.188965,280.096252 362.936737,283.139252 
	C359.701721,286.166107 355.260529,286.677948 352.652069,283.320160 
	C347.370209,276.520813 342.662598,278.066620 335.842590,281.230164 
	C320.176727,288.497009 304.445831,286.995911 289.230896,277.908020 
M286.990265,252.474762 
	C295.597900,266.350311 309.654663,272.353333 324.481415,268.485565 
	C333.260956,266.195282 333.610596,264.952881 327.300812,258.465088 
	C326.952667,258.107117 326.591187,257.761261 326.255951,257.391571 
	C322.607513,253.367783 322.320099,248.555252 325.531342,245.339264 
	C328.935699,241.929871 333.221100,242.178665 337.541229,245.889664 
	C339.869659,247.889786 341.496338,250.787140 344.855042,251.936615 
	C345.486420,250.981949 346.201874,250.244843 346.522095,249.364059 
	C350.934814,237.227066 349.981537,225.673203 341.694214,215.499252 
	C333.294495,205.187347 322.060059,201.347183 309.110748,203.921570 
	C288.192383,208.080231 276.099518,231.528091 286.990265,252.474762 
z"/>
<path fill="#000000" opacity="1.000000" stroke="none" 
	d="
M189.746857,284.469299 
	C184.079529,281.158112 182.890976,278.400177 185.008881,272.804230 
	C195.015060,246.365829 205.118515,219.964249 215.186478,193.549240 
	C216.810730,189.287689 219.604477,186.631912 224.429306,186.487076 
	C229.436478,186.336761 232.616928,188.728439 234.331665,193.274490 
	C244.366409,219.877930 254.435303,246.468658 264.374512,273.107788 
	C266.412354,278.569580 264.452393,282.802948 259.686676,284.434784 
	C255.202942,285.970093 251.605560,283.917542 249.362823,278.421448 
	C247.981018,275.035156 246.676926,271.613983 245.452621,268.167694 
	C244.554001,265.638184 242.901794,264.449158 240.212006,264.460419 
	C229.893402,264.503662 219.574539,264.494873 209.255783,264.496094 
	C206.601929,264.496399 204.922272,265.706329 204.022919,268.249695 
	C202.748398,271.854065 201.411240,275.444275 199.906128,278.957123 
	C198.083725,283.210571 195.068909,285.648376 189.746857,284.469299 
M233.294022,236.076996 
	C230.666977,229.204361 228.039932,222.331741 225.412888,215.459122 
	C220.400055,225.353790 216.691406,235.124680 212.977051,244.893402 
	C212.212006,246.905487 212.889908,248.433060 214.981613,248.478226 
	C222.211151,248.634354 229.446152,248.538361 236.882858,248.538361 
	C236.886414,243.677032 234.535934,240.437485 233.294022,236.076996 
z"/>
<path fill="#000000" opacity="1.000000" stroke="none" 
	d="
M152.475006,244.520737 
	C150.446640,250.508408 151.672119,256.350769 151.418076,262.123138 
	C151.205948,266.942535 151.433670,271.779602 151.346115,276.606689 
	C151.248474,281.989807 148.423264,285.164764 143.795303,285.297333 
	C138.981277,285.435272 135.679703,282.099060 135.662369,276.647583 
	C135.592484,254.669388 135.625290,232.690842 135.621613,210.712433 
	C135.620834,206.050339 135.574753,201.387527 135.641357,196.726349 
	C135.727753,190.678833 138.736069,187.082291 144.647476,187.023483 
	C155.293976,186.917526 165.953171,187.120071 176.591599,187.564224 
	C182.206909,187.798660 184.674713,190.735947 184.506744,195.725250 
	C184.349884,200.385330 181.232620,203.227585 175.838974,203.324295 
	C169.347305,203.440720 162.850708,203.455719 156.359238,203.343018 
	C152.711441,203.279694 151.247086,204.862442 151.350189,208.455688 
	C151.488617,213.280304 151.469498,218.113861 151.356171,222.939774 
	C151.275162,226.389984 152.854767,227.706787 156.200455,227.644241 
	C161.859421,227.538452 167.523315,227.556488 173.182770,227.656738 
	C178.588745,227.752487 182.200485,231.026611 182.191360,235.611572 
	C182.182327,240.159668 178.562302,243.145050 173.091827,243.452896 
	C166.319443,243.833984 159.479950,242.449631 152.475006,244.520737 
z"/>
</svg>