<?xml version="1.0" encoding="UTF-8"?>
<svg version="1.1" xmlns="http://www.w3.org/2000/svg" width="512" height="512">
<path d="M0 0 C0.76591816 -0.00205263 1.53183632 -0.00410527 2.32096413 -0.0062201 C4.89642278 -0.01189026 7.47182796 -0.01043283 10.04729176 -0.00901413 C11.9088905 -0.01159775 13.77048868 -0.01461091 15.6320861 -0.01801753 C20.75499735 -0.02609107 25.8778946 -0.0278773 31.00081146 -0.028615 C36.52312431 -0.03046493 42.04542988 -0.03801195 47.56773853 -0.04475021 C59.64624009 -0.05833647 71.72473833 -0.06435868 83.80324626 -0.06876087 C91.34380174 -0.07152274 98.88435593 -0.07575998 106.42491055 -0.08026505 C127.29881385 -0.09245798 148.17271648 -0.1027927 169.04662323 -0.10614014 C170.39628895 -0.10636177 171.74595467 -0.10658355 173.09562038 -0.10680549 C174.44853089 -0.10702613 175.80144139 -0.10724661 177.15435189 -0.10746694 C179.86848716 -0.10790949 182.58262243 -0.1083566 185.2967577 -0.10880661 C185.96970457 -0.108916 186.64265145 -0.10902539 187.33599065 -0.1091381 C209.15551079 -0.1127686 230.9749977 -0.12868872 252.79450512 -0.15199697 C275.86740794 -0.17659905 298.94029541 -0.19030643 322.01321346 -0.19150805 C334.58903116 -0.1924251 347.16480535 -0.19818493 359.74061108 -0.21632767 C370.44873682 -0.23172142 381.15680561 -0.23685337 391.86494031 -0.22858956 C397.32840073 -0.22468055 402.79174642 -0.22562506 408.25519276 -0.23964691 C413.25851042 -0.25237044 418.26162697 -0.25120182 423.26494429 -0.2390562 C425.07317267 -0.23709653 426.88141522 -0.24019007 428.68962368 -0.24890056 C442.8567101 -0.31281524 454.22829547 0.83935299 465.10754871 10.72517776 C472.9577762 19.06727414 473.94106736 28.66637202 473.86157703 39.68086624 C473.86619378 41.03118641 473.87255187 42.38150153 473.88048601 43.73180628 C473.89709662 47.41835998 473.8889711 51.10449647 473.87654114 54.79105115 C473.86745882 58.77613524 473.88147609 62.76114958 473.89246082 66.74621964 C473.9102168 74.54348085 473.90641913 82.34058776 473.89481026 90.13785493 C473.88576469 96.4766932 473.8845568 102.81548833 473.88890553 109.15433121 C473.88951846 110.0576322 473.89013139 110.9609332 473.8907629 111.89160696 C473.89204184 113.72683332 473.89333869 115.56205966 473.89465326 117.397286 C473.9060505 134.59299737 473.8929588 151.78862334 473.8714518 168.9843207 C473.85358159 183.72854888 473.85668594 198.47265108 473.87512684 213.21687698 C473.89654868 230.35242902 473.90495194 247.48790627 473.89267778 264.62346983 C473.89140363 266.45182132 473.89014615 268.28017281 473.88890553 270.10852432 C473.88797987 271.45778491 473.88797987 271.45778491 473.88703552 272.83430329 C473.88358656 279.16312485 473.88940116 285.49189885 473.89882374 291.82071304 C473.91005971 299.53689168 473.90697015 307.25290762 473.88570076 314.96906769 C473.87521178 318.90353478 473.87103153 322.83773093 473.88429737 326.77219582 C473.89627212 330.37836664 473.88957609 333.98401698 473.86838716 337.590141 C473.8618472 339.50297041 473.8748117 341.41583633 473.88861609 343.32862711 C473.78510634 354.76833514 470.76290019 362.6260965 462.86536121 370.92830276 C456.65535983 376.37533353 449.54055707 379.26028437 441.31696033 379.25168228 C440.30176319 379.25305695 439.28656605 379.25443161 438.24060535 379.25584793 C437.13289783 379.25225266 436.02519032 379.24865738 434.8839159 379.24495316 C433.71290333 379.24509918 432.54189075 379.24524521 431.33539295 379.24539566 C427.46124901 379.24469848 423.58715302 379.23691514 419.71301746 379.22908401 C417.02830501 379.22666397 414.34359261 379.22574638 411.65887928 379.2247963 C405.31246287 379.22168911 398.96606371 379.21348396 392.61965489 379.20344681 C385.39358351 379.19226667 378.16751131 379.18677043 370.94143343 379.18175137 C356.07882712 379.17130084 341.21623593 379.15371324 326.35364246 379.13142776 C328.56531466 382.92733156 330.77777317 386.7227765 332.99036121 390.51814651 C333.6093932 391.580616 334.22842518 392.64308548 334.86621571 393.73775101 C339.01567368 400.85441915 343.18377093 407.95949452 347.41357899 415.02876663 C350.55738213 420.33111164 351.78209384 423.91888281 351.35364246 430.13142776 C349.64718745 433.80030603 347.39278911 436.47217445 344.35364246 439.13142776 C341.60293185 440.0483313 339.98897162 440.25810659 337.15659237 440.26285553 C336.29678741 440.26669667 335.43698244 440.27053782 334.55112278 440.27449536 C333.60609863 440.27362888 332.66107447 440.2727624 331.68741322 440.27186966 C330.68382389 440.27484078 329.68023456 440.2778119 328.64623344 440.28087306 C325.26760753 440.28957717 321.88901699 440.29106975 318.51038074 440.29256058 C316.09443555 440.29718749 313.67849109 440.30221197 311.26254749 440.30760574 C304.68821976 440.32074279 298.1138994 440.32721362 291.53956175 440.3316164 C287.43534974 440.33437854 283.33114008 440.33861581 279.22692966 440.34312057 C267.86564055 440.35531266 256.50435333 440.36561246 245.14305782 440.36899567 C244.41588863 440.36921523 243.68871943 440.3694348 242.93951481 440.36966102 C242.2105992 440.3698793 241.48168359 440.37009757 240.73067963 440.37032247 C239.25360083 440.37076593 237.77652204 440.3712125 236.29944324 440.37166214 C235.20041848 440.37199428 235.20041848 440.37199428 234.07919119 440.37233314 C222.20372231 440.37628224 210.32831474 440.39373991 198.45286955 440.41702166 C186.26330421 440.44072658 174.07376967 440.4531971 161.8841809 440.45436358 C155.03901796 440.45528077 148.19393493 440.46104407 141.34879398 440.4791832 C134.91218332 440.49617958 128.47568398 440.49784325 122.03905582 440.48904419 C119.67391523 440.48827122 117.30876663 440.49265058 114.94364643 440.50250244 C111.7201943 440.51514447 108.49728676 440.50938715 105.273839 440.49892044 C104.33327628 440.50697685 103.39271357 440.51503325 102.42364895 440.52333379 C96.15799248 440.47560116 92.85546775 439.35527247 88.10364246 435.13142776 C85.8139732 432.51466289 85.39809888 430.49448854 84.97864246 427.06892776 C85.92781312 417.10263584 93.34384043 407.8985367 98.41614246 399.44392776 C99.48349372 397.65773326 100.54983248 395.8709391 101.61571217 394.08386612 C102.57881881 392.4702039 103.54439614 390.85801703 104.5101366 389.24592972 C105.84834868 386.98509387 107.16765572 384.71869844 108.46886158 382.43677139 C109.09083927 381.346008 109.71281696 380.2552446 110.35364246 379.13142776 C109.74533431 379.13511494 109.13702616 379.13880211 108.51028442 379.14260101 C93.66871584 379.23116406 78.82717295 379.29724009 63.98540497 379.33867645 C56.80784232 379.35925045 49.63045668 379.38727133 42.4530077 379.43318558 C36.19286069 379.47321254 29.93284196 379.49889805 23.67257053 379.50778174 C20.36159272 379.51296994 17.05106463 379.5271935 13.74018383 379.55434799 C10.03258683 379.58353693 6.32574083 379.58737713 2.61804676 379.58552933 C1.53550617 379.59991043 0.45296558 379.61429153 -0.66237926 379.62910843 C-11.90822646 379.56876898 -20.37216554 376.38655153 -28.47838879 368.57674026 C-34.10240247 362.23325817 -36.76529012 355.99199584 -36.78057861 347.56028938 C-36.78503646 346.41942182 -36.7894943 345.27855427 -36.79408723 344.10311496 C-36.79390287 342.84924743 -36.79371851 341.5953799 -36.79352856 340.30351639 C-36.7968285 338.9583803 -36.80055434 337.61324519 -36.80467004 336.26811135 C-36.81468338 332.56813874 -36.81840576 328.86818235 -36.82105935 325.16819811 C-36.82496437 321.17893949 -36.83454257 317.1896937 -36.84327221 313.20044327 C-36.86303098 303.56460689 -36.87310207 293.92876948 -36.882 284.29291791 C-36.88638385 279.7545405 -36.89175041 275.21616426 -36.89698887 270.67778778 C-36.91400054 255.59002996 -36.92849457 240.50227286 -36.93573761 225.41450691 C-36.93764748 221.49950917 -36.93956782 217.58451143 -36.94152355 213.6695137 C-36.94200729 212.69646778 -36.94249103 211.72342186 -36.94298943 210.7208897 C-36.95128921 194.95923854 -36.97662552 179.19766329 -37.00910423 163.43604527 C-37.0421817 147.25183122 -37.06018699 131.06765574 -37.06338185 114.88340771 C-37.0655463 105.79740194 -37.07428553 96.71150687 -37.09984303 87.62553406 C-37.12155941 79.88727486 -37.12959583 72.14915324 -37.11987624 64.41086702 C-37.11533425 60.46427348 -37.11721167 56.51796376 -37.13663769 52.57140923 C-37.15428977 48.95392386 -37.15325553 45.33692893 -37.1377404 41.71943821 C-37.13424864 39.80033694 -37.15037543 37.88123041 -37.16734487 35.962201 C-37.08771332 25.22963371 -34.50090142 17.04739916 -27.06432629 9.17830276 C-18.99942595 2.35114965 -10.32595553 -0.02576458 0 0 Z M-17.64635754 25.13142776 C-21.79384133 31.56002765 -20.78282226 39.95895937 -20.75988293 47.28718948 C-20.76000346 48.5269359 -20.760124 49.76668232 -20.76024818 51.04399681 C-20.75962646 54.38558882 -20.75469384 57.72711816 -20.74763775 61.06869888 C-20.74192623 64.20882949 -20.74167373 67.3489586 -20.74096203 70.48909378 C-20.73572289 79.66154319 -20.72176167 88.83398594 -20.70885754 98.00642776 C-20.68823254 118.50767776 -20.66760754 139.00892776 -20.64635754 160.13142776 C31.49364246 160.13142776 83.63364246 160.13142776 137.35364246 160.13142776 C138.80826559 155.05565705 138.80826559 155.05565705 140.14270496 149.94783401 C145.9506235 127.34037542 158.76368476 109.90724381 178.97082996 97.95174026 C189.14556078 92.47665417 198.84231322 90.43369361 210.35364246 88.13142776 C210.35364246 64.70142776 210.35364246 41.27142776 210.35364246 17.13142776 C182.16397846 17.06373258 153.97438018 17.00845863 125.78465557 16.97599125 C112.69596798 16.96051605 99.60733443 16.93941398 86.51868153 16.90510941 C75.11189556 16.87522713 63.70514873 16.85585751 52.2983247 16.84916228 C46.25734654 16.84524806 40.21648037 16.83603536 34.17553806 16.81423759 C28.49078421 16.79389106 22.80618859 16.78759031 17.12140179 16.79210472 C15.03403902 16.7912787 12.94667102 16.78530224 10.85933971 16.77381134 C8.01047454 16.75889609 5.16220762 16.76247078 2.31332874 16.77066422 C1.48647001 16.76192569 0.65961128 16.75318717 -0.19230378 16.74418384 C-7.83615896 16.80364632 -12.55290832 19.33055505 -17.64635754 25.13142776 Z M226.35364246 17.13142776 C226.35364246 40.56142776 226.35364246 63.99142776 226.35364246 88.13142776 C232.29364246 89.45142776 238.23364246 90.77142776 244.35364246 92.13142776 C248.29231109 93.68175478 251.6917343 95.1390826 255.35364246 97.13142776 C256.32559559 97.63416214 257.29754871 98.13689651 258.29895496 98.65486526 C275.79165153 108.18413475 288.50945723 123.69802358 294.46692371 142.67830276 C295.47465519 146.15222801 296.42293858 149.63620792 297.35364246 153.13142776 C298.34364246 156.59642776 298.34364246 156.59642776 299.35364246 160.13142776 C351.49364246 160.13142776 403.63364246 160.13142776 457.35364246 160.13142776 C457.39489246 139.67142776 457.43614246 119.21142776 457.47864246 98.13142776 C457.49685047 91.67838089 457.51505848 85.22533401 457.53381824 78.57674026 C457.54050837 72.77693664 457.54050837 72.77693664 457.54452991 66.97713089 C457.54759502 64.39990353 457.55386342 61.82287422 457.56479359 59.24568558 C457.58115711 55.33518889 457.5814535 51.42477263 457.58069324 47.51424026 C457.59148757 45.80084961 457.59148757 45.80084961 457.60249996 44.052845 C457.58228886 36.27220385 457.33105301 28.53095561 452.35364246 22.13142776 C446.38054065 17.6516014 442.03821412 16.98578343 434.75471973 17.01117325 C433.8660256 17.01031882 432.97733146 17.0094644 432.0617072 17.00858408 C429.07216602 17.00693182 426.08268046 17.01244655 423.09314442 17.01790237 C420.95479808 17.01818433 418.81645164 17.01802635 416.67810535 17.01745987 C410.86234434 17.01717221 405.04660383 17.0230639 399.2308476 17.03003383 C393.15696805 17.03627256 387.08308807 17.03687158 381.00920582 17.03805923 C369.5026534 17.04117101 357.99611045 17.04938235 346.48956221 17.05940872 C333.39179872 17.07057461 320.29403479 17.07608151 307.19626772 17.08110416 C280.24871951 17.09156507 253.30118427 17.10990866 226.35364246 17.13142776 Z M172.66614246 123.19392776 C159.8429873 136.56664672 153.88562187 153.57128939 154.08411121 171.99470901 C154.90768387 189.15179648 162.83770445 204.48633981 175.35364246 216.13142776 C191.47760741 229.53654232 207.73153168 233.54080477 228.35364246 232.13142776 C244.81815681 230.21651275 259.08193884 220.03309877 269.47473621 207.59236526 C279.84647942 193.54032609 284.58965275 176.50399846 282.06067371 159.11726761 C279.44608485 144.45940448 272.96923267 132.6171069 262.35364246 122.13142776 C261.74004871 121.49591995 261.12645496 120.86041214 260.49426746 120.20564651 C235.7400881 96.35065743 196.45904364 100.90649214 172.66614246 123.19392776 Z M-20.64635754 177.13142776 C-20.64635754 224.32142776 -20.64635754 271.51142776 -20.64635754 320.13142776 C55.58364246 320.13142776 131.81364246 320.13142776 210.35364246 320.13142776 C210.35364246 296.70142776 210.35364246 273.27142776 210.35364246 249.13142776 C204.74364246 247.81142776 199.13364246 246.49142776 193.35364246 245.13142776 C172.87328203 237.8908963 156.51696554 224.44054429 146.41614246 205.13142776 C143.22090494 198.33581495 141.19277606 191.39208315 139.35364246 184.13142776 C138.69364246 181.82142776 138.03364246 179.51142776 137.35364246 177.13142776 C85.21364246 177.13142776 33.07364246 177.13142776 -20.64635754 177.13142776 Z M299.35364246 177.13142776 C297.88981742 182.24444653 297.88981742 182.24444653 296.52942371 187.38533401 C292.45570862 202.99816968 285.24304707 216.1337285 273.35364246 227.13142776 C272.82899403 227.64963089 272.30434559 228.16783401 271.76379871 228.70174026 C258.89034975 240.84034119 243.37019358 245.48502395 226.35364246 249.13142776 C226.35364246 272.56142776 226.35364246 295.99142776 226.35364246 320.13142776 C302.58364246 320.13142776 378.81364246 320.13142776 457.35364246 320.13142776 C457.35364246 272.94142776 457.35364246 225.75142776 457.35364246 177.13142776 C405.21364246 177.13142776 353.07364246 177.13142776 299.35364246 177.13142776 Z M-20.64635754 337.13142776 C-20.64635754 345.21118231 -20.41583965 350.68828784 -15.33385754 357.00642776 C-10.02899827 361.20096765 -5.59515821 362.5758043 1.09739971 362.5117445 C2.24384139 362.51873438 2.24384139 362.51873438 3.41344351 362.52586547 C5.97749599 362.53782748 8.54101977 362.5284155 11.10507679 362.51910782 C12.96071703 362.52328021 14.81635471 362.52875721 16.67198765 362.53542763 C21.77374556 362.54991342 26.87534235 362.54562771 31.97710919 362.53826082 C37.47824618 362.53353918 42.97934779 362.54603011 48.48047352 362.55627823 C59.25877476 362.57349147 70.03701776 362.57430098 80.81532918 362.56906532 C89.57465908 362.56502698 98.33397174 362.56646319 107.09330082 362.57181358 C108.96198557 362.57293622 108.96198557 362.57293622 110.86842153 362.57408153 C113.39909648 362.57561298 115.92977143 362.57715132 118.46044637 362.5786965 C135.45699123 362.58852828 152.45352983 362.59268584 169.4500761 362.58507061 C170.11476538 362.58477344 170.77945465 362.58447626 171.46428602 362.58417008 C176.862083 362.58172113 182.2598799 362.57910955 187.6576768 362.57648595 C208.71147299 362.56638413 229.76518942 362.57473729 250.81897449 362.5979805 C274.47269838 362.62405177 298.12638484 362.63685181 321.78012669 362.62979275 C334.30445241 362.6262967 346.82871263 362.62855803 359.3530283 362.64604378 C370.01509571 362.66074467 380.67705151 362.66142886 391.33911668 362.64397287 C396.78008532 362.635443 402.22085439 362.63336181 407.66181278 362.64862442 C412.64222792 362.66242229 417.62227159 362.6577715 422.60266496 362.63838518 C424.40476836 362.63460978 426.20690116 362.63759128 428.00897847 362.64799684 C430.45916751 362.66113911 432.90806927 362.64960905 435.35820293 362.63199902 C436.40703932 362.64647478 436.40703932 362.64647478 437.47706431 362.66124299 C443.93441557 362.56598693 449.08725989 360.27852705 453.72864246 355.88142776 C457.42549586 349.62521433 457.35364246 344.47035952 457.35364246 337.13142776 C299.61364246 337.13142776 141.87364246 337.13142776 -20.64635754 337.13142776 Z M130.35364246 379.13142776 C129.93034153 379.86634949 129.5070406 380.60127121 129.07091236 381.35846329 C127.47139569 384.13490896 125.87140313 386.91107971 124.27110767 389.68707657 C123.58397185 390.87925096 122.89701543 392.07152879 122.21025562 393.26391983 C117.57642522 401.30907865 112.91380533 409.33538477 108.15454578 417.30708694 C106.21419498 420.04612331 106.21419498 420.04612331 105.35364246 423.13142776 C179.93364246 423.13142776 254.51364246 423.13142776 331.35364246 423.13142776 C327.35036746 415.07439099 327.35036746 415.07439099 323.01379871 407.25642776 C322.42534168 406.25095901 321.83688465 405.24549026 321.23059559 404.20955276 C320.63182606 403.19377151 320.03305653 402.17799026 319.41614246 401.13142776 C318.52378895 399.60775589 318.52378895 399.60775589 317.61340809 398.05330276 C315.86671471 395.07533373 314.1155671 392.10041554 312.35364246 389.13142776 C312.05504731 388.32025309 311.75645216 387.50907841 311.44880867 386.67332268 C310.08239407 383.53066869 308.84602526 381.50463491 306.35364246 379.13142776 C300.76753894 377.61756643 295.26632079 377.86574384 289.51624012 377.99617386 C287.78138868 377.99899587 286.0465253 377.99740876 284.31168079 377.99174881 C279.60865748 377.98888131 274.90818847 378.04763519 270.20575857 378.11748838 C265.28915133 378.18003573 260.37248436 378.1858782 255.45554066 378.19774246 C246.14785987 378.22881442 236.84135474 378.31086113 227.53419149 378.41123736 C216.93708061 378.52304253 206.33991333 378.57800127 195.7423594 378.62819171 C173.94546442 378.73269601 152.14962752 378.90856804 130.35364246 379.13142776 Z " fill="#000000" transform="translate(37.64635753631592,35.86857223510742)"/>
<path d="M0 0 C7.50170459 5.37144955 12.1566412 12.41205545 14.125 21.42578125 C15.25757989 29.72341918 14.04959685 38.4807319 9.37109375 45.58203125 C8.77296875 46.32453125 8.17484375 47.06703125 7.55859375 47.83203125 C8.5021875 48.54166016 8.5021875 48.54166016 9.46484375 49.265625 C21.02157759 58.19424617 30.89408284 68.91077017 33.55859375 83.83203125 C34.68739369 95.22827169 34.68739369 95.22827169 31.24609375 99.51953125 C26.8487187 103.30331908 22.83917144 102.98538964 17.31103516 102.99316406 C16.4700679 102.99812897 15.62910065 103.00309387 14.76264954 103.00820923 C11.97847681 103.02282348 9.19436104 103.02963137 6.41015625 103.03515625 C4.47586058 103.04090798 2.54156492 103.04666571 0.60726929 103.0524292 C-3.4496487 103.06293686 -7.50654688 103.06878117 -11.56347656 103.07226562 C-16.76110285 103.0777521 -21.95846741 103.10178444 -27.15601158 103.13023758 C-31.15201584 103.14886301 -35.14795701 103.15406949 -39.14400101 103.1556015 C-41.06015073 103.1586284 -42.97629933 103.16665817 -44.89240646 103.17978668 C-47.5734931 103.19684635 -50.25393967 103.19496725 -52.93505859 103.18847656 C-53.72588333 103.19769135 -54.51670807 103.20690613 -55.33149719 103.21640015 C-59.89534956 103.1817992 -62.79700078 102.62702904 -66.44140625 99.83203125 C-69.21723183 96.91042928 -69.87288691 94.89738963 -69.87890625 90.89453125 C-69.44007065 77.16263388 -63.22795116 64.75760987 -53.28515625 55.40234375 C-50.12563126 52.71139238 -46.82580002 50.2318741 -43.44140625 47.83203125 C-43.96541016 46.92710937 -43.96541016 46.92710937 -44.5 46.00390625 C-45.18255859 44.80507813 -45.18255859 44.80507813 -45.87890625 43.58203125 C-46.33136719 42.793125 -46.78382813 42.00421875 -47.25 41.19140625 C-50.84225169 34.07757012 -50.48858794 24.55696549 -48.79296875 16.90625 C-45.55373467 8.00527773 -39.86306144 2.09559836 -31.5546875 -2.2578125 C-21.53730503 -6.57213804 -9.25330876 -5.36114361 0 0 Z M-30.81640625 19.51953125 C-32.91562314 23.79870415 -33.27359217 27.14993471 -32.44140625 31.83203125 C-30.21799014 36.19651473 -27.56263576 39.18266942 -23.44140625 41.83203125 C-18.58809931 43.30912467 -15.12168358 42.70414218 -10.44140625 40.83203125 C-6.18740181 37.44816408 -3.92445446 34.06631906 -2.44140625 28.83203125 C-2.41048107 24.47158074 -3.41894003 21.21477092 -6.015625 17.703125 C-9.57373533 14.13058015 -12.47554088 12.37523512 -17.56640625 12.14453125 C-23.60347235 12.61675575 -26.85159818 15.03303791 -30.81640625 19.51953125 Z M-43.44140625 69.83203125 C-47.74703473 75.07532993 -49.53538366 79.16095218 -51.44140625 85.83203125 C-29.33140625 85.83203125 -7.22140625 85.83203125 15.55859375 85.83203125 C13.98463314 77.96222819 9.88252311 70.86674884 3.2265625 66.1953125 C-12.06125784 56.72924084 -30.12135254 56.91215083 -43.44140625 69.83203125 Z " fill="#000000" transform="translate(397.44140625,235.16796875)"/>
<path d="M0 0 C7.2809856 4.8444353 11.68042124 11.6209049 14 20 C15.01104398 30.58069279 13.91888046 39.12167931 8 48 C8.71285156 48.556875 9.42570312 49.11375 10.16015625 49.6875 C21.98550595 59.10958213 31.5380331 69.4896085 34 85 C35.08577503 95.36692045 35.08577503 95.36692045 31.6875 99.625 C27.31151765 103.49214719 23.30916586 103.15331819 17.75244141 103.16113281 C16.91147415 103.16609772 16.0705069 103.17106262 15.20405579 103.17617798 C12.41988306 103.19079223 9.63576729 103.19760012 6.8515625 103.203125 C4.91726683 103.20887673 2.98297117 103.21463446 1.04867554 103.22039795 C-3.00824245 103.23090561 -7.06514063 103.23674992 -11.12207031 103.24023438 C-16.3196966 103.24572085 -21.51706116 103.26975319 -26.71460533 103.29820633 C-30.71060959 103.31683176 -34.70655076 103.32203824 -38.70259476 103.32357025 C-40.61874448 103.32659715 -42.53489308 103.33462692 -44.45100021 103.34775543 C-47.13208685 103.3648151 -49.81253342 103.362936 -52.49365234 103.35644531 C-53.28447708 103.3656601 -54.07530182 103.37487488 -54.89009094 103.3843689 C-59.45456353 103.34976325 -62.35369245 102.79260453 -66 100 C-68.96658698 96.93604146 -69.4318286 94.71952421 -69.4375 90.5 C-69.02574037 76.38007601 -62.09608822 64.30995874 -52 54.7265625 C-49.13196144 52.25063859 -46.15212825 50.10141884 -43 48 C-43.33773437 47.45472656 -43.67546875 46.90945313 -44.0234375 46.34765625 C-49.28334275 37.45446384 -51.33241049 29.25432539 -49 19 C-46.08263944 10.9343561 -42.17811745 4.78097247 -35 0 C-34.03513672 -0.64775391 -34.03513672 -0.64775391 -33.05078125 -1.30859375 C-23.3650217 -6.64037377 -9.31288045 -5.55323612 0 0 Z M-31 20 C-33.15668934 24.59609077 -33.31887475 27.87455969 -31.9375 32.75 C-29.07335375 37.55437436 -26.50798584 40.79554053 -21.0625 42.4375 C-17.14779301 43.20134527 -14.62641031 42.81320516 -11 41 C-7.39688987 38.543334 -4.65499204 36.09952156 -3 32 C-2.28048749 27.39846649 -2.56662343 23.88342147 -4.625 19.6875 C-8.58980807 15.20100666 -11.8379339 12.7847245 -17.875 12.3125 C-23.86358347 12.58388596 -27.48854461 15.2512576 -31 20 Z M-45.6015625 72.83203125 C-48.68954293 76.97642604 -51 80.78500408 -51 86 C-28.89 86 -6.78 86 16 86 C12.2012297 74.6036891 8.47377949 68.7966952 -2 63 C-2.60328125 62.65839844 -3.2065625 62.31679688 -3.828125 61.96484375 C-18.43697679 55.13679346 -35.52348139 61.30368969 -45.6015625 72.83203125 Z " fill="#000000" transform="translate(150,235)"/>
<path d="M0 0 C7.2932149 5.62816018 11.64859997 14.01175123 12.8828125 23.09765625 C13.24286009 31.99597536 10.68469143 40.21721926 5.8203125 47.59765625 C6.63822266 48.07332031 6.63822266 48.07332031 7.47265625 48.55859375 C19.55117185 56.0328205 26.00292937 66.05419842 31.1953125 79.03515625 C33.54867705 92.4493342 33.54867705 92.4493342 30.76953125 97.51171875 C26.42563222 101.89405937 22.32892362 101.76017925 16.51855469 101.79052734 C15.23047157 101.80279358 15.23047157 101.80279358 13.91636658 101.81530762 C11.06664735 101.84017602 8.21697802 101.85668206 5.3671875 101.87109375 C4.3946125 101.87641743 3.42203751 101.8817411 2.41999054 101.8872261 C-2.7286246 101.91396504 -7.87721543 101.93333684 -13.02587891 101.94775391 C-18.34355305 101.96439606 -23.66060676 102.00916819 -28.97804642 102.06012535 C-33.06673899 102.09378724 -37.15528418 102.10533024 -41.24410248 102.11098099 C-43.20411669 102.11769727 -45.16412107 102.13292911 -47.12400055 102.1568718 C-49.86996427 102.18850121 -52.61425341 102.18856348 -55.36035156 102.18115234 C-56.16785355 102.19755768 -56.97535553 102.21396301 -57.80732727 102.23086548 C-61.90619975 102.18565783 -64.42652664 101.80491892 -67.668396 99.18618774 C-71.69771475 95.03293891 -71.46359075 92.20142623 -71.390625 86.59765625 C-70.50100681 73.94530866 -63.3223823 62.09789142 -54.1796875 53.59765625 C-51.27874254 51.41405227 -48.30568477 49.44286297 -45.1796875 47.59765625 C-45.52902344 46.9221875 -45.87835938 46.24671875 -46.23828125 45.55078125 C-46.69332031 44.65875 -47.14835937 43.76671875 -47.6171875 42.84765625 C-48.06964844 41.9659375 -48.52210938 41.08421875 -48.98828125 40.17578125 C-52.32593443 32.95331863 -52.47124306 23.51820216 -50.4609375 15.859375 C-49.51123303 13.64212141 -48.44864899 11.64719603 -47.1796875 9.59765625 C-46.8290625 8.97503906 -46.4784375 8.35242188 -46.1171875 7.7109375 C-42.28892798 1.58306376 -36.52486805 -1.95932469 -29.9921875 -4.77734375 C-18.97332598 -6.58371449 -9.49100468 -6.10621986 0 0 Z M-32.5546875 18.22265625 C-34.76287151 22.80888458 -34.96182796 26.59521625 -34.1796875 31.59765625 C-32.01408361 36.47026501 -29.09316155 38.85194008 -24.328125 40.96875 C-19.25317551 42.45432612 -15.43149665 41.25898939 -10.8671875 38.84765625 C-7.0038939 35.61327091 -5.5648047 33.08310832 -4.3046875 28.22265625 C-4.15123709 23.77259446 -4.9665697 21.45276468 -7.1796875 17.59765625 C-10.84716121 13.81313551 -14.12135579 11.45668398 -19.4296875 11.28515625 C-25.47838929 11.37253717 -28.55407149 13.80092277 -32.5546875 18.22265625 Z M-47.1796875 71.59765625 C-50.57870727 75.97340584 -52.077673 79.08758374 -53.1796875 84.59765625 C-31.0696875 84.59765625 -8.9596875 84.59765625 13.8203125 84.59765625 C12.1630475 76.31133123 7.44736523 69.83557678 0.8203125 64.59765625 C-16.16560026 54.45329169 -33.77843331 56.91664265 -47.1796875 71.59765625 Z " fill="#000000" transform="translate(399.1796875,67.40234375)"/>
<path d="M0 0 C7.09455324 4.8098666 11.65145897 11.53110937 13.88671875 19.78125 C14.76048397 28.92530466 14.15151665 36.60964819 9.88671875 44.78125 C9.32597656 45.90466797 9.32597656 45.90466797 8.75390625 47.05078125 C8.46773438 47.62183594 8.1815625 48.19289062 7.88671875 48.78125 C8.58796875 49.24273437 9.28921875 49.70421875 10.01171875 50.1796875 C22.33668206 58.65309978 30.95217442 69.84175159 33.88671875 84.78125 C34.87683862 93.89302883 34.87683862 93.89302883 32.8359375 97.78515625 C31.08621656 99.92714501 29.36891811 101.54015032 26.88671875 102.78125 C24.10617651 102.8901577 21.35029971 102.93857822 18.5690918 102.94238281 C17.70876343 102.94734772 16.84843506 102.95231262 15.96203613 102.95742798 C13.1074952 102.97206803 10.25300985 102.97885498 7.3984375 102.984375 C5.41787209 102.99012533 3.4373067 102.99588308 1.45674133 103.00164795 C-2.70030986 103.01216346 -6.85734167 103.01800239 -11.0144043 103.02148438 C-16.34097207 103.02696752 -21.667284 103.05098943 -26.99377155 103.07945633 C-31.08671312 103.09808201 -35.1795931 103.10328829 -39.27257347 103.10482025 C-41.23617131 103.10784792 -43.19976804 103.11588028 -45.16332436 103.12900543 C-47.91157083 103.14606293 -50.65919274 103.1441863 -53.4074707 103.13769531 C-54.21856796 103.1469101 -55.02966522 103.15612488 -55.86534119 103.1656189 C-60.46173056 103.13161711 -63.4864698 102.68359274 -67.11328125 99.78125 C-70.40129892 94.8492235 -69.61526103 89.54448622 -69.11328125 83.78125 C-66.52978418 71.358806 -59.4059083 59.51893034 -48.89453125 52.24609375 C-46.99058043 51.04271638 -45.07516286 49.88703782 -43.11328125 48.78125 C-43.45101562 48.24757812 -43.78875 47.71390625 -44.13671875 47.1640625 C-49.52018686 38.17087012 -51.49631345 29.13122416 -49.11328125 18.78125 C-45.48458513 8.76152853 -40.15819528 1.92506992 -30.48828125 -2.65625 C-20.45800248 -6.2418042 -9.18025635 -5.29434377 0 0 Z M-30.42578125 19.09375 C-32.86837086 22.98380011 -33.63596879 26.31120444 -32.671875 30.8671875 C-30.81395218 36.57897309 -28.01060603 39.13682242 -22.80078125 42.09375 C-17.52700169 43.4428564 -13.47422951 42.50024153 -8.80078125 40.03125 C-5.28790589 37.09023807 -3.42646195 35.08950773 -2.796875 30.44921875 C-2.53069637 24.72208491 -3.13601665 21.17717403 -7.11328125 16.78125 C-11.27009295 13.1077885 -14.53146176 12.13104367 -19.9375 12.39453125 C-24.51452996 13.20804286 -27.24333516 15.91130391 -30.42578125 19.09375 Z M-45.11328125 72.78125 C-48.51230102 77.15699959 -50.01126675 80.27117749 -51.11328125 85.78125 C-29.00328125 85.78125 -6.89328125 85.78125 15.88671875 85.78125 C12.50784826 75.64463852 7.63091927 67.85635444 -2.11328125 62.78125 C-18.00787913 55.33776756 -33.72740833 60.3080775 -45.11328125 72.78125 Z " fill="#000000" transform="translate(150.11328125,66.21875)"/>
<path d="M0 0 C3.12748871 1.65820919 6.17550139 3.41239193 9.21923828 5.21972656 C10.32009766 5.85587891 11.42095703 6.49203125 12.55517578 7.14746094 C15.80662488 9.03117678 19.04444214 10.93682412 22.28173828 12.84472656 C23.97990471 13.82831647 25.67901701 14.81027654 27.37939453 15.79003906 C48.00681322 27.72043206 48.00681322 27.72043206 51.28173828 32.84472656 C52.26076761 37.18042786 52.60018836 39.70740484 51.40673828 43.96972656 C43.95318842 54.05394108 28.17826082 59.91200522 17.50146484 65.99121094 C14.61246953 67.6543329 11.75179378 69.35501942 8.89892578 71.07910156 C7.33903753 72.00098939 5.77914226 72.92286535 4.21923828 73.84472656 C3.53740479 74.27172852 2.85557129 74.69873047 2.15307617 75.13867188 C-2.34735405 77.75243693 -5.53676404 78.15789638 -10.68676758 77.43603516 C-14.26274193 76.3951735 -16.16222524 74.52856487 -18.71826172 71.84472656 C-19.78247357 68.65209102 -19.85781643 66.33979079 -19.87939453 62.98388672 C-19.88900208 61.7789859 -19.89860962 60.57408508 -19.9085083 59.33267212 C-19.91275818 58.02954071 -19.91700806 56.7264093 -19.92138672 55.38378906 C-19.92714103 54.03241983 -19.93289873 52.6810506 -19.93865967 51.3296814 C-19.94915935 48.49680197 -19.9550088 45.66395083 -19.95849609 42.83105469 C-19.96397945 39.20726654 -19.98800794 35.58385438 -20.01646805 31.9601841 C-20.03512361 29.16857827 -20.04030156 26.37706252 -20.04183197 23.58539963 C-20.04631777 21.60178018 -20.06494927 19.61820901 -20.08380127 17.63467407 C-20.08080017 16.42346893 -20.07779907 15.21226379 -20.07470703 13.96435547 C-20.07835266 12.90084869 -20.08199829 11.83734192 -20.08575439 10.74160767 C-19.50898526 6.19503646 -17.21710667 2.76043069 -13.71826172 -0.15527344 C-8.69569481 -1.82946241 -4.86791568 -2.06888603 0 0 Z M-2.71826172 19.84472656 C-2.71826172 32.05472656 -2.71826172 44.26472656 -2.71826172 56.84472656 C1.39691904 55.19865426 5.08445531 53.35561454 8.89501953 51.14941406 C9.50943405 50.79710724 10.12384857 50.44480042 10.75688171 50.08181763 C12.70443338 48.96416187 14.64935787 47.84202295 16.59423828 46.71972656 C17.92023874 45.95770945 19.2464089 45.19598756 20.57275391 44.43457031 C23.81105288 42.57470135 27.04701251 40.71080476 30.28173828 38.84472656 C27.86766222 36.15952965 25.2788155 34.56412011 22.13330078 32.81347656 C21.12783203 32.25015625 20.12236328 31.68683594 19.08642578 31.10644531 C18.03712891 30.52507812 16.98783203 29.94371094 15.90673828 29.34472656 C13.83614179 28.1889852 11.7658198 27.0327519 9.69580078 25.87597656 C8.77750488 25.36615234 7.85920898 24.85632813 6.91308594 24.33105469 C5.108695 23.31183665 3.32757306 22.25062693 1.56835938 21.15527344 C-0.56820327 19.67897462 -0.56820327 19.67897462 -2.71826172 19.84472656 Z " fill="#000000" transform="translate(246.71826171875,166.1552734375)"/>
</svg>
