<svg version="1.1" id="Layer_1" xmlns="http://www.w3.org/2000/svg" xmlns:xlink="http://www.w3.org/1999/xlink" x="0px" y="0px"
	 width="100%" viewBox="0 0 1920 1920" enable-background="new 0 0 1920 1920" xml:space="preserve">
<path fill="none" opacity="1.000000" stroke="#000000" stroke-linecap="round" stroke-linejoin="round" stroke-width="20.000000"
	d="
M853.000000,659.500000 
	C849.395935,661.387878 845.577881,662.040344 841.500000,662.037292 
	C772.500000,661.985168 703.500000,662.000000 634.500000,662.000000 
	C624.392334,662.000000 623.000000,663.392334 623.000000,673.500000 
	C623.000000,916.833313 623.000000,1160.166626 623.000000,1403.500000 
	C623.000000,1404.333374 622.970886,1405.167847 623.004578,1405.999756 
	C623.316711,1413.711548 625.159058,1415.494263 633.000000,1415.494751 
	C779.666687,1415.501831 926.333313,1415.495117 1073.000000,1415.534180 
	C1076.049194,1415.534912 1078.882812,1414.788940 1081.782959,1413.654785 
	C1083.934082,1409.533447 1083.495361,1404.736206 1083.496460,1400.000000 
	C1083.503418,1368.666626 1083.225708,1337.329224 1083.702881,1306.003052 
	C1083.814941,1298.648804 1083.696045,1291.334839 1083.687622,1283.999756 
	C1083.453735,1080.333374 1083.500854,876.666687 1083.497803,673.000000 
	C1083.497559,662.079712 1080.892334,661.939697 1073.491699,659.021179 
	C1068.552734,657.073547 1063.773071,656.044495 1058.914673,659.892212 
	C1056.384888,661.895630 1052.847412,662.026306 1049.500000,662.024475 
	C987.833313,661.991028 926.166687,661.983337 864.500061,662.039185 
	C860.574524,662.042725 857.050903,660.842712 853.500000,659.500000 
"/>
<path fill="none" opacity="1.000000" stroke="#000000" stroke-linecap="round" stroke-linejoin="round" stroke-width="19.000000"
	d="
M1086.000000,1295.000000 
	C1107.166626,1295.166626 1128.343018,1294.996826 1149.497070,1295.602661 
	C1167.665405,1296.122681 1185.827148,1296.408447 1203.999756,1296.541260 
	C1225.667603,1296.699707 1247.333618,1297.153687 1268.999878,1297.507080 
	C1276.500610,1297.629517 1284.001953,1297.773804 1291.499268,1298.023193 
	C1295.782349,1298.165527 1298.282227,1296.691162 1298.609497,1292.007690 
	C1298.724854,1290.356567 1298.988892,1288.674316 1298.989014,1287.000000 
	C1299.000610,1033.333374 1299.000000,779.666687 1299.000000,526.000000 
	C1299.000000,525.833313 1299.006836,525.666382 1298.999023,525.500061 
	C1298.561157,516.107727 1297.568970,514.486084 1288.000000,514.487488 
	C1162.166626,514.506226 1036.333374,514.500000 910.500000,514.500000 
	C903.166687,514.500000 895.826355,514.694763 888.502380,514.433289 
	C883.399536,514.251038 878.728149,515.548523 874.584229,518.134949 
	C872.573059,519.390198 871.132141,519.508972 868.986877,519.063049 
	C858.194458,516.819641 853.174438,521.022888 853.030884,532.500366 
	C852.889160,543.831909 853.000000,555.166687 853.000000,566.500000 
	C853.000000,593.500000 852.980408,620.500000 853.022278,647.499939 
	C853.028198,651.333557 853.333313,655.166687 853.500000,659.000000 
"/>
<path fill="none" opacity="1.000000" stroke="#000000" stroke-linecap="round" stroke-linejoin="round" stroke-width="20.000000"
	d="
M1027.500000,745.750000 
	C1022.982605,746.606079 1018.505188,745.473877 1014.000000,745.475281 
	C911.333313,745.507385 808.666687,745.502869 706.000000,745.491333 
	C701.164062,745.490784 696.349670,746.615662 691.500000,745.750000 
"/>
<path fill="none" opacity="1.000000" stroke="#000000" stroke-linecap="round" stroke-linejoin="round" stroke-width="19.000000"
	d="
M1027.500000,869.750000 
	C1026.500000,869.833374 1025.500000,869.989502 1024.500000,869.989624 
	C914.500000,870.000610 804.500000,870.000610 694.500000,869.989624 
	C693.500000,869.989502 692.500000,869.833313 691.500000,869.749939 
"/>
<path fill="none" opacity="1.000000" stroke="#000000" stroke-linecap="round" stroke-linejoin="round" stroke-width="19.000000"
	d="
M1027.500000,1118.750000 
	C1026.500000,1118.833374 1025.500000,1118.989502 1024.500000,1118.989624 
	C914.500000,1119.000610 804.500000,1119.000732 694.500000,1118.989746 
	C693.500000,1118.989624 692.500000,1118.833374 691.500000,1118.750122 
"/>
<path fill="none" opacity="1.000000" stroke="#000000" stroke-linecap="round" stroke-linejoin="round" stroke-width="19.000000"
	d="
M1027.500000,1242.750000 
	C1026.500000,1242.833374 1025.500000,1242.989502 1024.500000,1242.989624 
	C914.500000,1243.000610 804.500000,1243.000732 694.500000,1242.989746 
	C693.500000,1242.989624 692.500000,1242.833374 691.500000,1242.750000 
"/>
<path fill="none" opacity="1.000000" stroke="#000000" stroke-linecap="round" stroke-linejoin="round" stroke-width="20.000000"
	d="
M1026.000000,994.500000 
	C914.166687,994.500000 802.333313,994.500000 690.500000,994.500000 
"/>
<path fill="none" opacity="1.000000" stroke="#000000" stroke-linecap="round" stroke-linejoin="round" stroke-width="18.000000"
	d="
M872.000000,520.500000 
	C874.817688,526.899658 879.530823,531.341187 885.449463,535.080017 
	C913.396118,552.733887 941.166626,570.666687 969.000000,588.500000 
	C996.833313,606.333374 1024.684082,624.139648 1052.485107,642.023071 
	C1057.970947,645.551880 1063.111572,649.505371 1064.500000,656.500000 
"/>
<path fill="none" opacity="1.000000" stroke="#000000" stroke-linecap="round" stroke-linejoin="round" stroke-width="3.000000"
	d="
M845.000000,498.500000 
	C848.024719,504.348206 850.332153,510.618347 855.000000,515.500000 
"/>
</svg>